# xmcd
#
# Track frame offsets:
# 150
# 6600
# 18525
# 38745
# 54992
# 69375
# 84900
# 93285
# 103237
# 114262
#
# Disc length: 1704 seconds
#
#
# Revision: 0
# Processed by: cddbd v1.5.1PL2 Copyright (c) Steve Scherf et al.
# Submitted via: FreeRIP 2.92 
#
DISCID=7506a60a
DTITLE=Spinning Heads - Change the Game
DYEAR=2005
DGENRE=Noise
TTITLE0=Put One's Finger On Sore
TTITLE1=Last
TTITLE2=Words Can't Explain
TTITLE3=Epitaph
TTITLE4=Japan
TTITLE5=Rocky
TTITLE6=False Confession
TTITLE7=Roll the World
TTITLE8=Addiction
TTITLE9=When Suffering Became Performing
EXTD=
EXTT0=
EXTT1=
EXTT2=
EXTT3=
EXTT4=
EXTT5=
EXTT6=
EXTT7=
EXTT8=
EXTT9=
PLAYORDER=
